<svg  xmlns="http://www.w3.org/2000/svg" width="324" height="133.52093302501598" viewBox="0 0 324 133.52093302501598" class="css-1j8o68f">
    <defs id="SvgjsDefs1909"></defs>
    <g id="SvgjsG1910" featurekey="symbolFeature-0" transform="matrix(2.086235480773883,0,0,2.086235480773883,-53.76499911503072,-38.017687129618075)" fill="#635718">
        <g xmlns="http://www.w3.org/2000/svg">
            <g>
                <path d="M25.788,36.867c0.18,1.779,1.719,3.07,3.444,2.885l-0.647-6.427C26.861,33.511,25.611,35.099,25.788,36.867z">
                </path>
                <path d="M27.078,49.724c0.177,1.769,1.72,3.058,3.444,2.878l-0.646-6.427C28.154,46.359,26.9,47.945,27.078,49.724z">
                </path>
                <path d="M28.37,62.578c0.18,1.773,1.719,3.057,3.444,2.877l-0.647-6.427C29.444,59.213,28.19,60.802,28.37,62.578z">
                </path>
            </g>
            <g>
                <path d="M73.688,36.867c-0.18,1.779-1.719,3.07-3.443,2.885l0.646-6.427C72.614,33.511,73.864,35.099,73.688,36.867z">
                </path>
                <path d="M72.396,49.724c-0.177,1.769-1.719,3.058-3.442,2.878l0.646-6.427C71.322,46.359,72.575,47.945,72.396,49.724z">
                </path>
                <path d="M71.104,62.578c-0.177,1.773-1.719,3.057-3.442,2.877l0.646-6.427C70.031,59.213,71.281,60.802,71.104,62.578z">
                </path>
            </g>
            <path d="M68.828,18.422c-0.725-0.365-1.589-0.219-2.167,0.367L55.521,30.008c-1.51,1.328-3.457,2.162-5.612,2.203h-0.345   c-2.154-0.042-4.101-0.875-5.612-2.203L32.814,18.79c-0.578-0.586-1.447-0.732-2.168-0.367c-0.725,0.362-1.156,1.151-1.078,1.974   l4.788,48.593c0.085,0.891,0.749,1.609,1.609,1.742c0,0,0.125,0.055,0.291,0.138c2.131,0.711,3.68,2.737,3.68,5.17   c0,0.875-0.217,1.688-0.572,2.419h10.111h0.263h0.315h10.057c-0.352-0.731-0.57-1.544-0.57-2.419c0-2.433,1.55-4.459,3.68-5.17   c0.166-0.083,0.291-0.138,0.291-0.138c0.859-0.133,1.521-0.852,1.609-1.742L69.9,20.396C69.984,19.573,69.552,18.784,68.828,18.422   z M34.617,36.987c-0.192-1.773,1.047-3.367,2.772-3.565c1.723-0.198,3.271,1.083,3.462,2.857c0.193,1.773-1.048,3.367-2.772,3.565   C36.357,40.042,34.806,38.763,34.617,36.987z M36.003,49.828c-0.194-1.773,1.048-3.367,2.771-3.565   c1.722-0.195,3.271,1.083,3.462,2.856s-1.051,3.368-2.773,3.565C37.741,52.878,36.191,51.602,36.003,49.828z M40.831,65.364   c-1.722,0.198-3.271-1.083-3.464-2.852c-0.191-1.778,1.048-3.367,2.771-3.565c1.727-0.2,3.276,1.076,3.465,2.854   C43.795,63.572,42.553,65.166,40.831,65.364z M58.641,65.364c-1.719-0.198-2.956-1.792-2.771-3.563   c0.192-1.778,1.744-3.055,3.466-2.854c1.727,0.198,2.961,1.787,2.773,3.565C61.916,64.281,60.364,65.563,58.641,65.364z    M60.011,52.685c-1.725-0.197-2.964-1.792-2.771-3.565c0.188-1.773,1.742-3.052,3.464-2.856c1.719,0.198,2.961,1.792,2.771,3.565   C63.281,51.602,61.731,52.878,60.011,52.685z M61.394,39.844c-1.722-0.198-2.961-1.792-2.769-3.565   c0.19-1.773,1.739-3.055,3.458-2.857c1.729,0.198,2.966,1.792,2.776,3.565C64.666,38.763,63.114,40.042,61.394,39.844z">
            </path>
            <rect x="39.384" y="79.716" width="20.705" height="2.508"></rect>
        </g>
    </g>
</svg>