<svg  xmlns="http://www.w3.org/2000/svg" width="324" height="133.52093302501598" viewBox="0 0 324 133.52093302501598" class="css-1j8o68f">
    <defs id="SvgjsDefs1909"></defs>
    <g id="SvgjsG1910" featurekey="symbolFeature-0" transform="matrix(2.086235480773883,0,0,2.086235480773883,-53.76499911503072,-38.017687129618075)" fill="#635718">
        <g xmlns="http://www.w3.org/2000/svg">
            <g>
                <path d="M25.788,36.867c0.18,1.779,1.719,3.07,3.444,2.885l-0.647-6.427C26.861,33.511,25.611,35.099,25.788,36.867z">
                </path>
                <path d="M27.078,49.724c0.177,1.769,1.72,3.058,3.444,2.878l-0.646-6.427C28.154,46.359,26.9,47.945,27.078,49.724z">
                </path>
                <path d="M28.37,62.578c0.18,1.773,1.719,3.057,3.444,2.877l-0.647-6.427C29.444,59.213,28.19,60.802,28.37,62.578z">
                </path>
            </g>
            <g>
                <path d="M73.688,36.867c-0.18,1.779-1.719,3.07-3.443,2.885l0.646-6.427C72.614,33.511,73.864,35.099,73.688,36.867z">
                </path>
                <path d="M72.396,49.724c-0.177,1.769-1.719,3.058-3.442,2.878l0.646-6.427C71.322,46.359,72.575,47.945,72.396,49.724z">
                </path>
                <path d="M71.104,62.578c-0.177,1.773-1.719,3.057-3.442,2.877l0.646-6.427C70.031,59.213,71.281,60.802,71.104,62.578z">
                </path>
            </g>
            <path d="M68.828,18.422c-0.725-0.365-1.589-0.219-2.167,0.367L55.521,30.008c-1.51,1.328-3.457,2.162-5.612,2.203h-0.345   c-2.154-0.042-4.101-0.875-5.612-2.203L32.814,18.79c-0.578-0.586-1.447-0.732-2.168-0.367c-0.725,0.362-1.156,1.151-1.078,1.974   l4.788,48.593c0.085,0.891,0.749,1.609,1.609,1.742c0,0,0.125,0.055,0.291,0.138c2.131,0.711,3.68,2.737,3.68,5.17   c0,0.875-0.217,1.688-0.572,2.419h10.111h0.263h0.315h10.057c-0.352-0.731-0.57-1.544-0.57-2.419c0-2.433,1.55-4.459,3.68-5.17   c0.166-0.083,0.291-0.138,0.291-0.138c0.859-0.133,1.521-0.852,1.609-1.742L69.9,20.396C69.984,19.573,69.552,18.784,68.828,18.422   z M34.617,36.987c-0.192-1.773,1.047-3.367,2.772-3.565c1.723-0.198,3.271,1.083,3.462,2.857c0.193,1.773-1.048,3.367-2.772,3.565   C36.357,40.042,34.806,38.763,34.617,36.987z M36.003,49.828c-0.194-1.773,1.048-3.367,2.771-3.565   c1.722-0.195,3.271,1.083,3.462,2.856s-1.051,3.368-2.773,3.565C37.741,52.878,36.191,51.602,36.003,49.828z M40.831,65.364   c-1.722,0.198-3.271-1.083-3.464-2.852c-0.191-1.778,1.048-3.367,2.771-3.565c1.727-0.2,3.276,1.076,3.465,2.854   C43.795,63.572,42.553,65.166,40.831,65.364z M58.641,65.364c-1.719-0.198-2.956-1.792-2.771-3.563   c0.192-1.778,1.744-3.055,3.466-2.854c1.727,0.198,2.961,1.787,2.773,3.565C61.916,64.281,60.364,65.563,58.641,65.364z    M60.011,52.685c-1.725-0.197-2.964-1.792-2.771-3.565c0.188-1.773,1.742-3.052,3.464-2.856c1.719,0.198,2.961,1.792,2.771,3.565   C63.281,51.602,61.731,52.878,60.011,52.685z M61.394,39.844c-1.722-0.198-2.961-1.792-2.769-3.565   c0.19-1.773,1.739-3.055,3.458-2.857c1.729,0.198,2.966,1.792,2.776,3.565C64.666,38.763,63.114,40.042,61.394,39.844z">
            </path>
            <rect x="39.384" y="79.716" width="20.705" height="2.508"></rect>
        </g>
    </g>
    <g id="SvgjsG1911" featurekey="nameFeature-0" transform="matrix(1.4920919875985335,0,0,1.4920919875985335,122.8063247023574,30.630850042319125)" fill="#635718">
        <path d="M23.76 12.280000000000001 l0 5.32 l-8.36 0 l0 22.4 l-6.24 0 l0 -22.4 l-8.36 0 l0 -5.32 l22.96 0 z M35.400000000000006 35.84 q0.88 0 1.68 -0.04 t1.28 -0.12 l0 -4.52 q-0.36 -0.08 -1.08 -0.16 t-1.32 -0.08 q-0.84 0 -1.58 0.1 t-1.3 0.38 t-0.88 0.76 t-0.32 1.2 q0 1.4 0.94 1.94 t2.58 0.54 z M34.92 18.4 q2.64 0 4.4 0.6 t2.82 1.72 t1.5 2.72 t0.44 3.56 l0 12.4 q-1.28 0.28 -3.56 0.66 t-5.52 0.38 q-2.04 0 -3.7 -0.36 t-2.86 -1.18 t-1.84 -2.14 t-0.64 -3.24 q0 -1.84 0.74 -3.12 t1.98 -2.04 t2.84 -1.1 t3.32 -0.34 q1.16 0 2.06 0.1 t1.46 0.26 l0 -0.56 q0 -1.52 -0.92 -2.44 t-3.2 -0.92 q-1.52 0 -3 0.22 t-2.56 0.62 l-0.76 -4.8 q0.52 -0.16 1.3 -0.34 t1.7 -0.32 t1.94 -0.24 t2.06 -0.1 z M62.96000000000001 29.32 q0 -5.76 -4.24 -5.76 q-0.92 0 -1.82 0.24 t-1.46 0.6 l0 10.84 q0.44 0.08 1.12 0.14 t1.48 0.06 q2.44 0 3.68 -1.68 t1.24 -4.44 z M69.04 29.48 q0 2.52 -0.74 4.56 t-2.14 3.48 t-3.44 2.22 t-4.64 0.78 q-1.08 0 -2.26 -0.1 t-2.32 -0.26 t-2.18 -0.38 t-1.84 -0.46 l0 -29.4 l5.96 -0.96 l0 10.48 q1 -0.44 2.08 -0.68 t2.32 -0.24 q2.24 0 3.96 0.78 t2.88 2.22 t1.76 3.46 t0.6 4.5 z M87.12 29.32 q0 -5.76 -4.24 -5.76 q-0.92 0 -1.82 0.24 t-1.46 0.6 l0 10.84 q0.44 0.08 1.12 0.14 t1.48 0.06 q2.44 0 3.68 -1.68 t1.24 -4.44 z M93.2 29.48 q0 2.52 -0.74 4.56 t-2.14 3.48 t-3.44 2.22 t-4.64 0.78 q-1.08 0 -2.26 -0.1 t-2.32 -0.26 t-2.18 -0.38 t-1.84 -0.46 l0 -29.4 l5.96 -0.96 l0 10.48 q1 -0.44 2.08 -0.68 t2.32 -0.24 q2.24 0 3.96 0.78 t2.88 2.22 t1.76 3.46 t0.6 4.5 z M96.8 29.64 q0 -2.8 0.86 -4.9 t2.26 -3.5 t3.22 -2.12 t3.74 -0.72 q4.48 0 7.08 2.74 t2.6 8.06 q0 0.52 -0.04 1.14 t-0.08 1.1 l-13.52 0 q0.2 1.84 1.72 2.92 t4.08 1.08 q1.64 0 3.22 -0.3 t2.58 -0.74 l0.8 4.84 q-0.48 0.24 -1.28 0.48 t-1.78 0.42 t-2.1 0.3 t-2.24 0.12 q-2.84 0 -4.94 -0.84 t-3.48 -2.3 t-2.04 -3.46 t-0.66 -4.32 z M110.8 27.36 q-0.04 -0.76 -0.26 -1.48 t-0.68 -1.28 t-1.16 -0.92 t-1.74 -0.36 q-1 0 -1.72 0.34 t-1.2 0.9 t-0.74 1.3 t-0.38 1.5 l7.88 0 z M133.84 24.240000000000002 q-0.8 -0.2 -1.88 -0.42 t-2.32 -0.22 q-0.56 0 -1.34 0.1 t-1.18 0.22 l0 16.08 l-5.96 0 l0 -19.92 q1.6 -0.56 3.78 -1.06 t4.86 -0.5 q0.48 0 1.16 0.06 t1.36 0.16 t1.36 0.24 t1.16 0.34 z">
        </path>
    </g>
</svg>