<?xml version="1.0" ?><!DOCTYPE svg  PUBLIC '-//W3C//DTD SVG 1.1//EN'  'http://www.w3.org/Graphics/SVG/1.1/DTD/svg11.dtd'><svg enable-background="new 0 0 1000 1000" height="1000px" id="Layer_1" version="1.1" viewBox="0 0 1000 1000" width="1000px" xml:space="preserve" xmlns="http://www.w3.org/2000/svg" xmlns:xlink="http://www.w3.org/1999/xlink"><g><g><path d="M655.195,653.066H344.805c-8.284,0-15-6.716-15-15v-310.39c0-8.284,6.716-15,15-15h310.391c8.284,0,15,6.716,15,15v310.39    C670.195,646.351,663.479,653.066,655.195,653.066z M359.805,623.066h280.391v-280.39H359.805V623.066z"/></g><g><g><path d="M502.064,871.87c-52.508,0-103.452-10.287-151.42-30.575c-46.324-19.594-87.924-47.64-123.643-83.36     c-35.719-35.719-63.766-77.317-83.36-123.642c-20.288-47.97-30.575-98.915-30.575-151.421c0-52.508,10.287-103.452,30.575-151.42     c19.595-46.325,47.642-87.924,83.36-123.643c35.719-35.721,77.318-63.767,123.644-83.36     c47.967-20.288,98.911-30.575,151.419-30.575s103.453,10.287,151.421,30.575c0.577,0.245,1.147,0.494,1.718,0.744l0.896,0.391     c3.85,1.663,6.827,4.863,8.21,8.822c1.383,3.96,1.045,8.317-0.932,12.016l-0.525,0.983c-3.679,6.884-12.022,9.798-19.186,6.697     c-44.833-19.395-92.475-29.229-141.602-29.229c-197.4,0-357.998,160.598-357.998,357.998S304.664,840.87,502.064,840.87     c154.192,0,290.681-98.346,339.633-244.721c2.046-6.117,7.774-10.242,14.226-10.242h1.139c4.82,0,9.347,2.316,12.167,6.227     c2.819,3.91,3.588,8.937,2.065,13.51c-3.212,9.65-6.847,19.289-10.804,28.647c-19.596,46.326-47.642,87.926-83.361,123.644     c-35.721,35.722-77.321,63.768-123.645,83.36C605.518,861.583,554.572,871.87,502.064,871.87z"/></g><g><path d="M743.57,213.858c-3.457,0-6.918-1.189-9.725-3.58c-15.771-13.431-32.813-25.572-50.657-36.087     c-6.936-4.086-9.408-12.919-5.604-20.013l0.555-1.034c1.929-3.595,5.237-6.25,9.166-7.353c3.928-1.101,8.136-0.557,11.652,1.51     c19.443,11.426,38.026,24.661,55.233,39.34c3.277,2.796,5.194,6.866,5.263,11.174s-1.719,8.437-4.905,11.335l-0.885,0.805     C750.808,212.553,747.19,213.858,743.57,213.858z"/></g><g><path d="M871.933,441.941h-1.055c-7.419,0-13.724-5.424-14.832-12.76c-9.163-60.668-34.155-118.402-72.275-166.961     c-4.857-6.188-4.109-15.077,1.713-20.366l0.895-0.813c3.083-2.799,7.188-4.19,11.34-3.844c4.149,0.348,7.967,2.405,10.54,5.679     c21.218,27,38.792,56.801,52.231,88.574c12.65,29.905,21.491,61.286,26.278,93.27c0.646,4.318-0.621,8.703-3.471,12.011     S876.299,441.941,871.933,441.941z"/></g></g></g></svg>