<?xml version="1.0" ?><!DOCTYPE svg  PUBLIC '-//W3C//DTD SVG 1.1//EN'  'http://www.w3.org/Graphics/SVG/1.1/DTD/svg11.dtd'><svg enable-background="new 0 0 1000 1000" height="1000px" id="Layer_1" version="1.1" viewBox="0 0 1000 1000" width="1000px" xml:space="preserve" xmlns="http://www.w3.org/2000/svg" xmlns:xlink="http://www.w3.org/1999/xlink"><g><path d="M350.792,306.061c-4.641-2.68-10.359-2.68-15,0c-4.641,2.68-7.5,7.631-7.5,12.99v361.9c0,5.359,2.859,10.311,7.5,12.99   c2.321,1.34,4.91,2.01,7.5,2.01s5.18-0.67,7.5-2.01L664.207,512.99c4.641-2.68,7.5-7.631,7.5-12.99s-2.859-10.311-7.5-12.99   L350.792,306.061z M358.292,654.971V345.031L626.707,500L358.292,654.971z"/><path d="M857.062,603.037h-1.139c-6.451,0-12.18,4.125-14.226,10.242C792.745,759.654,656.256,858,502.065,858   c-197.401,0-357.998-160.598-357.998-357.998s160.597-357.998,357.998-357.998c49.126,0,96.767,9.834,141.602,29.229   c7.159,3.095,15.501,0.188,19.182-6.692l0.525-0.982c1.979-3.699,2.318-8.058,0.936-12.019c-1.383-3.96-4.36-7.161-8.211-8.825   l-0.906-0.396c-0.564-0.247-1.129-0.494-1.707-0.739c-47.968-20.288-98.913-30.575-151.42-30.575   c-52.507,0-103.452,10.287-151.42,30.575c-46.323,19.592-87.922,47.639-123.643,83.359c-35.721,35.721-63.767,77.32-83.359,123.643   c-20.289,47.969-30.576,98.914-30.576,151.421c0,52.506,10.287,103.45,30.576,151.42c19.594,46.325,47.64,87.924,83.359,123.642   c35.719,35.72,77.318,63.767,123.643,83.361C398.613,878.713,449.558,889,502.065,889c52.507,0,103.452-10.287,151.421-30.575   c46.324-19.595,87.924-47.642,123.644-83.361c35.72-35.717,63.766-77.316,83.36-123.643c3.951-9.344,7.587-18.98,10.804-28.646   c1.523-4.573,0.755-9.601-2.064-13.511S861.882,603.037,857.062,603.037z"/><path d="M683.189,191.321c17.845,10.516,34.888,22.656,50.655,36.086c2.808,2.392,6.269,3.581,9.726,3.581   c3.62,0,7.237-1.305,10.094-3.903l0.885-0.805c3.187-2.898,4.974-7.027,4.905-11.334c-0.068-4.308-1.985-8.378-5.263-11.174   c-17.202-14.677-35.786-27.913-55.233-39.342c-3.519-2.067-7.729-2.611-11.661-1.507c-3.93,1.104-7.239,3.765-9.165,7.364   l-0.554,1.035C673.784,178.416,676.259,187.238,683.189,191.321z"/><path d="M886.767,441.851c-4.786-31.98-13.627-63.36-26.277-93.271c-13.438-31.771-31.012-61.571-52.231-88.573   c-2.572-3.272-6.389-5.33-10.536-5.679c-4.139-0.351-8.254,1.042-11.337,3.838l-0.896,0.813c-5.828,5.287-6.579,14.181-1.72,20.371   c38.121,48.559,63.113,106.293,72.275,166.96c1.108,7.336,7.413,12.76,14.832,12.76h1.055c4.366,0,8.515-1.902,11.364-5.21   S887.413,446.168,886.767,441.851z"/></g></svg>