<?xml version="1.0" ?><!DOCTYPE svg  PUBLIC '-//W3C//DTD SVG 1.1//EN'  'http://www.w3.org/Graphics/SVG/1.1/DTD/svg11.dtd'><svg enable-background="new 0 0 1000 1000" height="1000px" id="Layer_1" version="1.1" viewBox="0 0 1000 1000" width="1000px" xml:space="preserve" xmlns="http://www.w3.org/2000/svg" xmlns:xlink="http://www.w3.org/1999/xlink"><g><path d="M857.063,603.036h-1.139c-6.451,0-12.18,4.125-14.226,10.242c-48.952,146.375-185.44,244.721-339.634,244.721   c-197.4,0-357.998-160.598-357.998-357.998s160.598-357.998,357.998-357.998c49.128,0,96.771,9.834,141.603,29.229   c7.162,3.1,15.512,0.187,19.188-6.702l0.525-0.984c1.975-3.699,2.312-8.056,0.928-12.014s-4.36-7.156-8.209-8.819l-0.895-0.391   c-0.57-0.25-1.142-0.499-1.719-0.744c-47.968-20.288-98.913-30.575-151.422-30.575c-52.508,0-103.452,10.287-151.42,30.575   c-46.326,19.596-87.926,47.643-123.642,83.361c-35.719,35.716-63.766,77.315-83.361,123.642   c-20.288,47.968-30.575,98.912-30.575,151.42c0,52.507,10.287,103.452,30.575,151.422c19.595,46.322,47.642,87.922,83.361,123.642   c35.718,35.72,77.317,63.767,123.642,83.359c47.968,20.288,98.912,30.575,151.42,30.575c52.509,0,103.454-10.287,151.421-30.575   c46.323-19.592,87.923-47.638,123.645-83.359c35.721-35.72,63.767-77.319,83.361-123.644c3.958-9.361,7.594-19,10.804-28.648   c1.522-4.574,0.753-9.601-2.066-13.51C866.409,605.353,861.883,603.036,857.063,603.036z"/><path d="M683.189,191.32c17.84,10.513,34.884,22.654,50.657,36.087c2.808,2.391,6.268,3.58,9.725,3.58   c3.62,0,7.237-1.306,10.094-3.903l0.885-0.805c3.188-2.898,4.974-7.028,4.905-11.335c-0.068-4.308-1.985-8.378-5.264-11.174   c-17.208-14.679-35.791-27.914-55.232-39.339c-3.516-2.065-7.719-2.61-11.65-1.51c-3.927,1.101-7.236,3.754-9.165,7.348   l-0.555,1.033C673.78,178.396,676.252,187.232,683.189,191.32z"/><path d="M886.769,441.851c-4.787-31.984-13.628-63.365-26.278-93.27c-13.439-31.773-31.013-61.574-52.231-88.575   c-2.572-3.273-6.391-5.331-10.54-5.679c-4.146-0.348-8.258,1.045-11.339,3.844l-0.895,0.813   c-5.823,5.289-6.571,14.178-1.714,20.366c38.12,48.559,63.112,106.294,72.275,166.962c1.108,7.336,7.413,12.76,14.832,12.76h1.055   c4.366,0,8.515-1.902,11.364-5.21S887.415,446.169,886.769,441.851z"/><path d="M343.713,270.896h-4.771c-25.916,0-47,21.084-47,47v364.211c0,25.916,21.084,47,47,47h4.771c25.916,0,47-21.084,47-47   V523.712l294.846,170.23c2.32,1.34,4.91,2.01,7.5,2.01s5.18-0.67,7.5-2.01c4.641-2.68,7.5-7.631,7.5-12.99v-361.9   c0-5.359-2.859-10.311-7.5-12.99s-10.359-2.68-15,0L390.713,476.29V317.896C390.713,291.979,369.629,270.896,343.713,270.896z    M678.059,345.032v309.939L409.645,500.001L678.059,345.032z M360.713,682.106c0,9.374-7.626,17-17,17h-4.771   c-9.374,0-17-7.626-17-17V317.896c0-9.374,7.626-17,17-17h4.771c9.374,0,17,7.626,17,17V682.106z"/></g></svg>